<?xml version="1.0" encoding="UTF-8"?>
<svg version="1.1" xmlns="http://www.w3.org/2000/svg" width="40" height="40">
<path d="M0 0 C13.2 0 26.4 0 40 0 C40 13.2 40 26.4 40 40 C26.8 40 13.6 40 0 40 C0 26.8 0 13.6 0 0 Z " fill="#FEB753" transform="translate(0,0)"/>
<path d="M0 0 C0.90105469 0.02707031 1.80210938 0.05414062 2.73046875 0.08203125 C3.76107422 0.13423828 3.76107422 0.13423828 4.8125 0.1875 C4.8125 0.8475 4.8125 1.5075 4.8125 2.1875 C4.1525 2.1875 3.4925 2.1875 2.8125 2.1875 C3.4725 4.1675 4.1325 6.1475 4.8125 8.1875 C5.4725 8.1875 6.1325 8.1875 6.8125 8.1875 C7.1425 6.5375 7.4725 4.8875 7.8125 3.1875 C7.1525 2.8575 6.4925 2.5275 5.8125 2.1875 C6.1425 1.5275 6.4725 0.8675 6.8125 0.1875 C9.4525 0.1875 12.0925 0.1875 14.8125 0.1875 C14.8125 0.8475 14.8125 1.5075 14.8125 2.1875 C14.214375 2.414375 13.61625 2.64125 13 2.875 C10.15732057 4.58060766 9.20334625 6.19718056 7.8125 9.1875 C7.56053871 11.89703551 7.56053871 11.89703551 7.8125 14.1875 C4.8125 14.1875 4.8125 14.1875 2.8125 13.1875 C2.8125 13.8475 2.8125 14.5075 2.8125 15.1875 C4.2046875 15.06375 4.2046875 15.06375 5.625 14.9375 C8.8125 15.1875 8.8125 15.1875 10.6875 17.0625 C11.8125 19.1875 11.8125 19.1875 11.8125 21.1875 C13.1325 21.1875 14.4525 21.1875 15.8125 21.1875 C15.8125 21.8475 15.8125 22.5075 15.8125 23.1875 C12.8425 23.5175 9.8725 23.8475 6.8125 24.1875 C5.4925 22.2075 4.1725 20.2275 2.8125 18.1875 C2.1525 19.1775 1.4925 20.1675 0.8125 21.1875 C1.4725 21.1875 2.1325 21.1875 2.8125 21.1875 C1.8225 23.6625 1.8225 23.6625 0.8125 26.1875 C-2.1575 26.1875 -5.1275 26.1875 -8.1875 26.1875 C-8.1875 25.1975 -8.1875 24.2075 -8.1875 23.1875 C-7.5275 23.1875 -6.8675 23.1875 -6.1875 23.1875 C-6.1875 22.5275 -6.1875 21.8675 -6.1875 21.1875 C-5.56875 21.084375 -4.95 20.98125 -4.3125 20.875 C-1.82223516 20.31224627 -1.82223516 20.31224627 -0.1875 17.1875 C0.19749891 15.53200469 0.54043135 13.8652567 0.8125 12.1875 C0.1525 12.1875 -0.5075 12.1875 -1.1875 12.1875 C-1.6 11.218125 -2.0125 10.24875 -2.4375 9.25 C-3.83649168 6.06489901 -3.83649168 6.06489901 -6.375 5.3125 C-6.973125 5.27125 -7.57125 5.23 -8.1875 5.1875 C-8.1875 3.1875 -8.1875 3.1875 -7.01171875 1.57421875 C-4.56833632 -0.28317046 -3.03181482 -0.11812266 0 0 Z " fill="#FED88A" transform="translate(15.1875,5.8125)"/>
<path d="M0 0 C2.64 0 5.28 0 8 0 C8 0.66 8 1.32 8 2 C7.4225 2.185625 6.845 2.37125 6.25 2.5625 C3.81090249 4.1208123 3.26260669 5.06577388 1.9375 7.5625 C0 11 0 11 -3 12 C-4.98 8.37 -6.96 4.74 -9 1 C-7.68 1 -6.36 1 -5 1 C-2 5.07142857 -2 5.07142857 -2 8 C-1.34 8 -0.68 8 0 8 C0.33 6.35 0.66 4.7 1 3 C0.34 2.67 -0.32 2.34 -1 2 C-0.67 1.34 -0.34 0.68 0 0 Z " fill="#FEE8CE" transform="translate(22,6)"/>
<path d="M0 0 C2.97 0 5.94 0 9 0 C9 1.32 9 2.64 9 4 C9.99 4 10.98 4 12 4 C12 4.66 12 5.32 12 6 C8.49031734 6.10027665 5.42348325 5.75149632 2 5 C0.00102872 4.66055205 -1.99875639 4.32578384 -4 4 C-4 3.34 -4 2.68 -4 2 C-2.68 2.33 -1.36 2.66 0 3 C0 2.01 0 1.02 0 0 Z " fill="#DF8841" transform="translate(22,17)"/>
<path d="M0 0 C1.37562854 1.28965176 2.70766393 2.62689293 4 4 C4 4.66 4 5.32 4 6 C5.32 6 6.64 6 8 6 C8 6.66 8 7.32 8 8 C3.545 8.495 3.545 8.495 -1 9 C-3 3.25 -3 3.25 -3 1 C-2.01 0.67 -1.02 0.34 0 0 Z " fill="#FEE0BD" transform="translate(23,21)"/>
<path d="M0 0 C1.98 0 3.96 0 6 0 C6.33 0.99 6.66 1.98 7 3 C4 3 4 3 2 2 C2 2.66 2 3.32 2 4 C2.66 4 3.32 4 4 4 C4.66 5.98 5.32 7.96 6 10 C2.5442399 8.84807997 1.80171463 8.08865366 0 5 C-0.1875 2.25 -0.1875 2.25 0 0 Z " fill="#F2C694" transform="translate(16,17)"/>
<path d="M0 0 C1.32 0 2.64 0 4 0 C4.69965443 1.26418246 5.38434763 2.53665402 6.0625 3.8125 C6.63677734 4.87404297 6.63677734 4.87404297 7.22265625 5.95703125 C8 8 8 8 7 11 C4.04250209 7.53258866 1.92151848 4.13126473 0 0 Z " fill="#FEFCF8" transform="translate(13,7)"/>
<path d="M0 0 C3.3 0 6.6 0 10 0 C9.67 0.99 9.34 1.98 9 3 C5.7 3 2.4 3 -1 3 C-0.67 2.01 -0.34 1.02 0 0 Z " fill="#FFC27C" transform="translate(20,29)"/>
<path d="M0 0 C0.33 0.66 0.66 1.32 1 2 C0.67 2.99 0.34 3.98 0 5 C0.66 5 1.32 5 2 5 C2 5.66 2 6.32 2 7 C-0.64 7 -3.28 7 -6 7 C-6 6.34 -6 5.68 -6 5 C-5.01 4.67 -4.02 4.34 -3 4 C-1.31461399 2.00334686 -1.31461399 2.00334686 0 0 Z " fill="#FEF0D7" transform="translate(16,22)"/>
<path d="M0 0 C2.52588702 2.36292656 3.88820837 3.66462511 5 7 C3.35 7.33 1.7 7.66 0 8 C-0.38063221 5.6739143 -0.71269945 3.33944736 -1 1 C-0.67 0.67 -0.34 0.34 0 0 Z " fill="#FEF8F1" transform="translate(23,21)"/>
<path d="M0 0 C0.33 0.99 0.66 1.98 1 3 C1.66 3 2.32 3 3 3 C2.67 4.65 2.34 6.3 2 8 C1.34 8 0.68 8 0 8 C-2 5 -2 5 -2 2 C-1.34 2 -0.68 2 0 2 C0 1.34 0 0.68 0 0 Z " fill="#FFBF68" transform="translate(20,6)"/>
<path d="M0 0 C1.98 0.495 1.98 0.495 4 1 C4 2.32 4 3.64 4 5 C2.35 5 0.7 5 -1 5 C-0.67 3.35 -0.34 1.7 0 0 Z " fill="#E19336" transform="translate(12,17)"/>
<path d="M0 0 C2.61500768 2.36595933 4.38999603 4.86049226 6 8 C5.67 8.66 5.34 9.32 5 10 C2.03134491 7.45543849 0.6380249 4.51005335 -1 1 C-0.67 0.67 -0.34 0.34 0 0 Z " fill="#FEE6BC" transform="translate(13,8)"/>
</svg>
